<?xml version="1.0"?>
<svg xmlns="http://www.w3.org/2000/svg" version="1" viewBox="0 0 24 24" enable-background="new 0 0 24 24">
    <path d="M 9.6875 2 C 9.0875 2.1 8.3875 2.5 7.6875 3 C 5.5875 3.2 2.8125 4.60625 2.8125 7.90625 C 2.8125 8.70625 2.80625 9.10625 2.90625 9.40625 C 2.50625 9.90625 2 10.90625 2 12.90625 C 2 13.40625 2.2875 13.8875 2.6875 14.1875 L 5.09375 15.5 C 5.29375 15.6 5.60625 15.6875 5.90625 15.6875 C 6.00625 15.6875 6.3125 15.1875 6.3125 15.1875 L 6.3125 16 C 6.3125 16.3 6.1875 16.4875 6.1875 16.6875 C 6.0875 17.0875 6.09375 17.4 6.09375 18 C 6.09375 19.6 7.8125 20.99375 8.8125 21.59375 C 9.1125 21.89375 9.3875 22 9.6875 22 L 14.3125 22 C 14.6125 22 14.8875 21.8875 15.1875 21.6875 C 16.1875 20.9875 17.8125 19.59375 17.8125 18.09375 C 17.8125 17.49375 17.7875 17.2125 17.6875 16.8125 C 17.6875 16.6125 17.59375 16.39375 17.59375 16.09375 L 17.59375 15.3125 C 17.59375 15.3125 17.9 15.8125 18 15.8125 C 18.3 15.8125 18.5125 15.69375 18.8125 15.59375 L 21.1875 14.3125 C 21.6875 14.0125 21.90625 13.5 21.90625 13 C 22.00625 10.9 21.49375 9.90625 21.09375 9.40625 C 21.09375 9.10625 21.1875 8.70625 21.1875 7.90625 C 21.1875 4.60625 18.4125 3.2 16.3125 3 C 15.6125 2.5 14.9125 2.19375 14.3125 2.09375 L 14 2.09375 L 13.34375 2.09375 C 13.097656 2.0630859 12.853125 2.0601562 12.65625 2.09375 L 11.34375 2.09375 C 11.146875 2.0601562 10.902344 2.0630859 10.65625 2.09375 L 10 2.09375 C 9.9 1.99375 9.7875 2 9.6875 2 z M 11.9375 3.59375 L 12.0625 3.59375 C 12.244479 5.9305689 13.18446 7 13.90625 7 C 14.746635 7 15.779247 6.0707311 16.09375 4.53125 C 16.64884 4.5595262 19.5 5.0067087 19.5 7.90625 C 19.5 8.50625 19.50625 8.8875 19.40625 9.1875 L 19.3125 9.6875 L 19.59375 10.09375 C 19.79375 10.39375 20.1875 11.10625 20.1875 12.90625 L 18.59375 14 C 17.49375 13.9 17.2 12.39375 17 12.09375 C 16.8 14.19375 16.1875 15.1875 16.1875 15.1875 L 16.1875 16.3125 C 16.1875 16.6125 16.3125 16.8 16.3125 17 C 16.3125 17.4 16.40625 17.59375 16.40625 18.09375 C 16.40625 18.69375 15.60625 19.7 14.40625 20.5 L 9.8125 20.5 C 8.6125 19.7 7.8125 18.69375 7.8125 18.09375 C 7.8125 17.59375 7.80625 17.4 7.90625 17 C 7.90625 16.8 8 16.6125 8 16.3125 L 8 15.1875 C 8 15.1875 7.09375 14.09375 7.09375 12.09375 C 6.49375 13.09375 5.5 14 5.5 14 L 3.59375 13 C 3.59375 11.3 4.0875 10.5125 4.1875 10.3125 L 4.5 9.90625 L 4.40625 9.1875 C 4.40625 8.8875 4.3125 8.40625 4.3125 7.90625 C 4.3125 4.90625 7.5125 4.5 7.8125 4.5 L 7.875 4.5 C 8.180048 6.0618247 9.2466346 7 10.09375 7 C 10.81554 7 11.755521 5.9305689 11.9375 3.59375 z"/>
</svg>
