<?xml version="1.0" standalone="no"?>
<!DOCTYPE svg PUBLIC "-//W3C//DTD SVG 20010904//EN"
 "http://www.w3.org/TR/2001/REC-SVG-20010904/DTD/svg10.dtd">
<svg version="1.0" xmlns="http://www.w3.org/2000/svg"
 width="512.000000pt" height="512.000000pt" viewBox="0 0 512.000000 512.000000"
 preserveAspectRatio="xMidYMid meet">

<g transform="translate(0.000000,512.000000) scale(0.100000,-0.100000)"
fill="#000000" stroke="none">
<path d="M1045 4655 c-255 -40 -481 -149 -658 -317 -65 -62 -73 -93 -32 -133
39 -40 71 -33 148 35 125 110 220 166 367 217 131 46 209 58 370 57 165 -2
273 -24 419 -87 270 -117 497 -370 587 -652 43 -137 69 -375 45 -414 -7 -11
-18 -7 -53 21 -89 73 -165 118 -197 118 -45 0 -73 -32 -69 -78 3 -33 10 -41
92 -98 132 -92 224 -180 319 -306 211 -279 345 -552 398 -811 l20 -101 -20
-75 c-11 -42 -23 -106 -27 -143 -6 -62 -5 -68 19 -92 59 -59 120 -21 131 81
10 88 30 150 92 282 124 263 304 475 529 625 44 30 206 123 360 207 154 84
290 163 303 176 47 47 38 60 -192 292 -239 241 -246 253 -225 350 13 63 20 63
140 17 113 -42 204 -98 308 -185 46 -39 92 -71 103 -71 11 0 33 14 50 30 24
25 29 36 23 58 -8 32 -49 77 -122 134 -29 22 -53 44 -53 49 0 15 61 48 118 65
28 8 57 24 62 34 33 61 -13 127 -79 115 -70 -13 -142 -47 -191 -92 l-51 -45
-67 29 c-37 17 -97 38 -133 48 l-66 17 13 65 c17 81 27 99 67 123 30 19 52 20
312 20 429 -1 408 14 611 -420 162 -346 174 -390 139 -524 -35 -135 -276 -582
-482 -896 -119 -180 -157 -235 -301 -427 l-83 -111 -118 -4 c-108 -3 -121 -5
-158 -30 -69 -46 -83 -89 -83 -259 l0 -144 -137 -150 c-182 -201 -552 -569
-594 -591 -22 -12 -55 -18 -94 -18 -50 0 -73 7 -135 38 -269 138 -648 374
-886 553 -54 40 -79 53 -106 53 -44 0 -68 -25 -68 -73 0 -35 5 -41 103 -113
214 -161 538 -364 802 -506 167 -90 205 -103 295 -103 63 1 86 6 143 32 59 28
95 60 275 237 114 113 250 252 302 309 l95 104 5 -103 c5 -95 7 -105 36 -141
36 -46 105 -83 154 -83 46 1 108 30 145 69 l29 32 236 -235 c239 -239 274
-266 342 -266 63 1 110 35 270 196 171 174 187 200 174 287 -8 51 -60 126
-111 157 -41 25 -56 25 -89 -1 -41 -32 -36 -79 14 -133 22 -24 40 -50 40 -57
0 -19 -281 -299 -300 -299 -8 0 -134 119 -280 265 -221 221 -271 265 -294 265
-21 0 -45 -16 -95 -65 -68 -66 -87 -75 -109 -53 -17 17 -17 649 0 666 17 17
649 17 666 0 22 -22 13 -41 -53 -109 -36 -37 -65 -74 -65 -84 0 -33 30 -72
133 -173 100 -98 107 -103 143 -100 47 4 80 43 70 83 -4 14 -41 62 -83 106
l-76 80 31 32 c78 81 81 187 8 265 -17 19 -40 39 -51 45 -12 7 -85 14 -177 17
l-157 5 80 110 c120 164 284 410 390 585 108 179 316 587 344 675 27 83 27
248 1 325 -22 63 -255 564 -293 628 -54 93 -159 167 -271 191 -32 7 -163 11
-331 11 -326 0 -355 -5 -432 -77 -27 -25 -55 -63 -64 -86 -8 -23 -33 -132 -55
-243 -60 -300 -57 -309 192 -560 l170 -172 -179 -97 c-409 -225 -477 -270
-632 -425 -103 -103 -183 -204 -255 -324 -21 -36 -37 -53 -40 -45 -3 8 -17 50
-32 94 -77 228 -205 458 -383 690 l-62 80 8 75 c28 266 -15 513 -130 735 -235
453 -761 720 -1262 640z"/>
<path d="M173 4040 c-12 -5 -34 -33 -49 -62 -129 -255 -157 -562 -78 -861 32
-121 127 -312 204 -407 58 -73 108 -139 256 -340 95 -129 246 -308 388 -460
186 -199 545 -529 592 -544 51 -16 103 35 90 88 -4 15 -52 65 -124 127 -351
308 -688 676 -915 1002 -47 67 -95 131 -107 142 -33 30 -114 144 -153 215 -47
86 -103 256 -116 353 -29 210 0 402 90 610 17 37 27 76 24 86 -13 40 -64 66
-102 51z"/>
<path d="M3402 3529 c-11 -4 -28 -19 -37 -32 -14 -22 -13 -36 6 -168 23 -159
37 -189 91 -189 28 0 78 38 78 59 0 45 -44 290 -55 307 -16 24 -52 34 -83 23z"/>
<path d="M3029 3361 c-44 -35 -32 -73 60 -199 84 -114 103 -132 141 -132 28 0
70 43 70 73 0 26 -147 237 -183 262 -29 20 -60 19 -88 -4z"/>
<path d="M2771 3064 c-23 -30 -26 -55 -10 -86 14 -26 251 -138 294 -138 18 0
39 8 48 18 22 25 22 85 0 104 -30 26 -258 128 -285 128 -17 0 -34 -10 -47 -26z"/>
</g>
</svg>
