<?xml version="1.0" standalone="no"?>
<!DOCTYPE svg PUBLIC "-//W3C//DTD SVG 20010904//EN"
 "http://www.w3.org/TR/2001/REC-SVG-20010904/DTD/svg10.dtd">
<svg version="1.0" xmlns="http://www.w3.org/2000/svg"
 width="100.000000pt" height="100.000000pt" viewBox="0 0 100.000000 100.000000"
 preserveAspectRatio="xMidYMid meet">

<g transform="translate(0.000000,100.000000) scale(0.100000,-0.100000)"
fill="#000000" stroke="none">
<path d="M135 904 c-48 -25 -104 -85 -121 -131 -14 -35 -16 -63 -10 -144 16
-257 84 -424 207 -514 49 -37 50 -37 99 -25 40 10 65 9 116 0 174 -33 308 34
385 194 23 48 37 64 78 88 30 16 63 46 78 70 24 36 28 52 28 112 -1 147 -95
237 -231 223 -100 -10 -171 -69 -196 -162 -10 -39 -13 -40 -45 -37 -59 7 -123
-18 -170 -66 -24 -24 -43 -39 -43 -34 0 6 -27 40 -61 77 -55 61 -97 130 -86
141 2 3 16 -1 30 -7 35 -16 79 2 117 50 49 58 39 88 -49 150 -49 34 -81 38
-126 15z m438 -378 c41 -17 98 -81 116 -131 13 -36 12 -38 -20 -71 -62 -64
-170 -82 -234 -40 -35 23 -85 104 -85 137 0 33 43 87 85 105 39 17 97 17 138
0z"/>
</g>
</svg>
