<?xml version="1.0" standalone="no"?>
<!DOCTYPE svg PUBLIC "-//W3C//DTD SVG 20010904//EN"
 "http://www.w3.org/TR/2001/REC-SVG-20010904/DTD/svg10.dtd">
<svg version="1.0" xmlns="http://www.w3.org/2000/svg"
 width="752.000000pt" height="752.000000pt" viewBox="0 0 752.000000 752.000000"
 preserveAspectRatio="xMidYMid meet">

<g transform="translate(0.000000,752.000000) scale(0.100000,-0.100000)"
fill="#000000" stroke="none">
<path d="M3235 5841 c-10 -18 17 -89 49 -129 l31 -37 -3 -170 -4 -170 -207
-102 c-282 -139 -488 -277 -529 -355 -13 -24 -16 -25 -140 -24 -144 1 -204
-11 -308 -60 -135 -63 -235 -197 -269 -359 -10 -46 -15 -121 -14 -219 l1 -149
-81 -44 c-59 -32 -81 -50 -81 -64 0 -35 24 -30 126 26 l100 55 -9 77 c-11 96
-2 248 18 326 44 170 149 281 314 334 60 19 241 28 309 15 31 -5 52 -6 52 0 0
5 6 5 16 0 10 -6 37 -4 72 4 79 19 189 17 253 -3 81 -26 151 -100 178 -188 12
-37 21 -87 21 -111 0 -84 62 -227 213 -491 40 -70 85 -162 100 -204 33 -90
117 -258 177 -353 36 -57 45 -66 51 -50 4 10 26 386 48 834 l42 815 -27 21
c-15 12 -48 32 -75 44 l-48 23 59 65 c33 36 72 90 87 121 l28 56 5 -120 6
-120 2 115 2 115 35 -64 c19 -35 53 -86 76 -113 23 -27 40 -50 38 -52 -2 -1
-24 -14 -49 -28 -25 -14 -54 -35 -64 -47 -19 -21 -18 -35 23 -828 23 -445 45
-821 49 -836 7 -27 12 -20 85 101 72 120 137 255 166 345 7 20 42 88 78 150
36 61 97 176 135 254 61 125 72 154 85 240 27 182 93 274 225 314 40 12 189
12 239 0 21 -5 43 -5 50 0 8 4 16 4 19 0 3 -5 28 -5 55 0 78 12 193 10 270 -6
143 -31 247 -106 309 -225 54 -102 68 -184 64 -370 l-3 -155 69 -37 c69 -38
100 -46 110 -29 12 18 -5 37 -61 66 l-56 30 -2 165 c-1 118 -7 182 -19 225
-56 201 -182 328 -377 381 -43 11 -105 17 -189 18 l-125 1 -60 64 c-84 89
-235 185 -485 309 l-215 107 0 171 c0 170 0 170 27 202 30 36 53 96 44 117
-12 32 -43 16 -61 -30 -9 -25 -29 -55 -45 -66 l-28 -21 6 -173 c3 -107 1 -184
-6 -202 l-10 -30 129 -58 c155 -69 355 -177 464 -250 81 -54 181 -142 172
-151 -3 -3 -23 4 -44 15 -87 44 -326 141 -466 190 -173 59 -317 91 -415 91
l-70 0 -44 49 c-52 58 -102 155 -117 229 -6 29 -12 128 -13 220 l-1 167 -7
-185 c-4 -102 -11 -198 -15 -215 -16 -63 -70 -152 -126 -211 l-59 -61 -93 -6
c-158 -10 -409 -90 -739 -235 -76 -33 -138 -57 -138 -53 0 16 101 102 182 155
100 65 277 160 451 241 111 52 127 63 122 80 -13 47 -16 148 -7 260 l9 120
-34 30 c-19 17 -40 48 -48 70 -13 40 -45 59 -60 36z"/>
<path d="M2735 4752 l-40 -7 120 -71 c66 -39 128 -76 139 -81 15 -8 2 -13 -65
-22 -98 -15 -256 -65 -366 -116 -43 -21 -109 -44 -148 -52 -89 -18 -216 -79
-288 -138 -129 -105 -216 -307 -217 -507 0 -74 17 -37 23 50 13 171 61 293
159 398 33 35 86 79 117 99 56 33 216 93 226 84 2 -3 -2 -54 -10 -115 -19
-143 -20 -413 -2 -420 19 -7 304 67 466 121 75 25 186 70 248 99 l111 54 -48
98 c-57 118 -74 172 -88 281 -16 122 -60 192 -142 227 -43 18 -140 27 -195 18z"/>
<path d="M4693 4746 c-56 -18 -99 -50 -129 -97 -27 -43 -54 -136 -54 -186 0
-44 -22 -108 -80 -230 l-48 -102 32 -21 c58 -35 188 -91 321 -137 145 -49 466
-136 474 -127 11 10 4 358 -7 438 -7 44 -10 81 -7 84 2 3 36 -5 74 -18 160
-51 292 -162 360 -303 44 -90 71 -203 71 -297 0 -33 4 -60 10 -60 15 0 12 111
-6 198 -46 228 -205 405 -433 481 -43 15 -85 32 -93 39 -57 47 -324 144 -462
168 -50 9 -92 17 -93 18 -1 1 56 36 126 76 78 45 125 78 118 82 -19 12 -128 8
-174 -6z"/>
<path d="M3757 3884 c-15 -307 -31 -585 -34 -616 l-6 -58 -32 43 c-110 144
-228 354 -291 519 -34 89 -154 311 -164 305 -65 -37 -245 -115 -345 -150 -105
-36 -332 -99 -476 -131 -25 -5 -26 -8 -18 -53 10 -68 37 -166 60 -226 17 -44
19 -57 9 -95 -41 -165 -187 -335 -393 -457 l-77 -47 7 -51 c5 -29 7 -104 6
-167 -3 -224 -73 -397 -226 -557 -60 -63 -69 -93 -28 -93 21 0 112 93 161 165
42 61 96 176 122 260 18 58 22 99 24 243 l3 174 88 57 c157 102 265 219 332
360 16 34 32 62 35 62 4 0 27 -26 51 -58 61 -81 95 -111 219 -195 94 -63 111
-79 123 -113 22 -60 13 -177 -19 -246 l-26 -56 19 -109 c25 -144 25 -199 -1
-226 -11 -12 -29 -45 -39 -74 -22 -56 -51 -235 -51 -307 0 -29 -10 -67 -30
-109 -34 -71 -39 -137 -15 -194 19 -46 51 -44 49 4 -2 28 12 45 126 156 218
210 397 314 558 324 116 6 155 -10 214 -91 25 -34 54 -79 64 -100 10 -20 21
-37 26 -37 5 0 17 15 27 33 11 17 41 62 68 99 58 82 91 98 198 98 180 0 394
-117 633 -347 l82 -78 -12 -38 c-13 -42 -2 -64 26 -54 46 18 49 140 6 237 -20
45 -30 85 -30 117 0 63 -26 225 -46 286 -9 26 -27 61 -41 78 -24 28 -25 35
-19 97 4 37 13 106 21 153 15 86 15 87 -10 142 -31 68 -41 164 -23 232 13 48
16 51 123 122 110 74 206 159 248 220 12 18 24 33 27 33 3 0 18 -26 34 -57 69
-142 193 -262 406 -395 25 -15 25 -16 26 -174 1 -191 18 -267 94 -421 39 -78
67 -119 126 -183 55 -57 83 -80 97 -78 36 5 29 25 -29 85 -104 106 -170 223
-212 378 -17 64 -24 309 -10 372 7 31 5 34 -35 54 -191 98 -375 283 -437 439
l-21 52 27 66 c24 61 74 240 74 266 0 7 -59 26 -137 45 -201 48 -450 133 -590
200 l-122 60 -64 -112 c-35 -62 -76 -146 -91 -187 -59 -156 -215 -427 -310
-540 l-24 -29 -5 67 c-4 37 -18 301 -32 587 -15 286 -29 533 -33 549 -4 16
-20 -222 -35 -530z m-587 -1137 c17 -34 30 -78 30 -97 0 -25 9 -43 32 -67 l32
-33 -26 0 c-48 0 -156 -40 -215 -80 l-58 -39 -8 47 c-4 26 -14 86 -23 135 -14
82 -13 89 5 125 26 52 44 148 37 201 l-6 46 86 -88 c58 -60 94 -106 114 -150z
m1459 -1 c21 -48 21 -50 6 -155 -9 -58 -19 -120 -21 -138 l-5 -32 -60 39 c-65
42 -127 65 -202 76 l-49 7 42 42 c34 34 43 52 46 85 6 63 57 149 137 231 l71
74 7 -90 c4 -58 14 -108 28 -139z m-811 -145 c-3 -188 -4 -196 -23 -196 -19 0
-20 8 -23 194 -2 198 1 217 35 204 11 -4 13 -43 11 -202z m-432 -174 c109
-113 229 -247 221 -247 -2 0 -28 4 -57 10 -158 30 -400 -96 -654 -341 -59 -56
-108 -100 -111 -98 -8 8 16 93 35 124 13 21 22 67 30 150 17 181 51 315 80
315 5 0 18 17 27 37 34 71 185 151 289 152 40 1 46 -3 140 -102z m1053 68 c65
-22 124 -60 160 -102 17 -21 40 -47 51 -58 10 -11 23 -32 29 -47 15 -40 39
-190 47 -293 4 -59 13 -99 24 -115 17 -25 40 -84 40 -103 0 -5 -42 31 -93 80
-125 121 -240 204 -361 263 -121 58 -187 74 -289 68 -43 -2 -76 0 -75 4 2 4
71 81 155 171 l152 164 58 -9 c32 -5 78 -15 102 -23z"/>
<path d="M2301 3343 c-20 -60 -85 -165 -137 -222 -97 -108 -252 -195 -410
-232 -52 -12 -94 -25 -94 -30 0 -5 10 -7 23 -5 150 31 248 67 335 123 121 77
218 184 277 307 35 74 42 96 27 96 -4 0 -14 -17 -21 -37z"/>
<path d="M5270 3366 c0 -30 69 -157 121 -223 94 -118 238 -204 394 -236 64
-13 94 -13 81 0 -2 3 -36 11 -73 18 -206 39 -373 167 -469 360 -51 101 -54
105 -54 81z"/>
</g>
</svg>
