<?xml version="1.0" standalone="no"?>
<!DOCTYPE svg PUBLIC "-//W3C//DTD SVG 20010904//EN"
 "http://www.w3.org/TR/2001/REC-SVG-20010904/DTD/svg10.dtd">
<svg version="1.0" xmlns="http://www.w3.org/2000/svg"
 width="100.000000pt" height="100.000000pt" viewBox="0 0 100.000000 100.000000"
 preserveAspectRatio="xMidYMid meet">

<g transform="translate(0.000000,100.000000) scale(0.100000,-0.100000)"
fill="#000000" stroke="none">
<path d="M664 925 c-4 -9 -3 -42 0 -75 l7 -59 -47 -43 c-26 -24 -75 -86 -109
-138 -34 -52 -82 -117 -107 -145 -44 -49 -47 -50 -109 -53 -62 -2 -123 -2
-184 1 -24 2 -31 -2 -33 -20 -2 -16 10 -29 57 -58 l60 -37 -30 -38 c-22 -27
-42 -40 -67 -45 -71 -13 -77 -35 -32 -107 l30 -48 63 0 c53 0 72 6 132 38 64
35 73 44 106 105 41 78 98 130 264 241 125 84 283 220 291 251 3 11 4 56 2
100 l-3 80 -105 26 c-165 41 -179 42 -186 24z m162 -186 c18 -15 18 -60 0
-103 -16 -38 -59 -74 -206 -174 -58 -39 -123 -87 -145 -106 l-40 -34 -21 32
-22 31 48 55 c26 30 77 101 115 158 41 63 83 115 109 134 37 27 46 29 94 25
29 -3 60 -11 68 -18z"/>
</g>
</svg>
