<?xml version="1.0" standalone="no"?>
<!DOCTYPE svg PUBLIC "-//W3C//DTD SVG 20010904//EN"
 "http://www.w3.org/TR/2001/REC-SVG-20010904/DTD/svg10.dtd">
<svg version="1.0" xmlns="http://www.w3.org/2000/svg"
 width="512.000000pt" height="512.000000pt" viewBox="0 0 512.000000 512.000000"
 preserveAspectRatio="xMidYMid meet">

<g transform="translate(0.000000,512.000000) scale(0.100000,-0.100000)"
fill="#000000" stroke="none">
<path d="M766 5103 c-3 -10 -14 -94 -25 -188 -77 -652 -74 -1265 10 -1760 62
-371 161 -644 340 -940 91 -152 137 -257 176 -405 22 -81 26 -118 26 -245 1
-173 -9 -227 -77 -418 -66 -187 -80 -263 -73 -421 6 -142 21 -206 74 -311 74
-146 193 -263 337 -334 144 -71 164 -74 514 -78 202 -3 330 -1 363 6 97 21
159 59 255 157 102 102 162 134 253 134 99 0 146 -23 246 -124 51 -50 115
-104 142 -119 104 -56 116 -57 740 -57 380 0 590 4 625 11 81 17 182 74 238
135 132 145 157 353 63 526 -38 69 -130 153 -210 190 -63 30 -76 32 -228 39
-89 4 -192 15 -231 24 -103 24 -216 84 -339 181 -216 170 -383 266 -613 353
-72 27 -162 69 -199 94 -184 119 -292 284 -330 505 -15 87 -15 130 -5 403 26
681 114 1487 257 2367 25 151 45 278 45 283 0 5 -489 9 -1184 9 -1120 0 -1185
-1 -1190 -17z m2020 -300 c-3 -10 -21 -126 -40 -258 -120 -818 -180 -1401
-207 -2005 -20 -464 -1 -620 100 -825 126 -255 332 -434 614 -534 192 -67 338
-151 539 -308 256 -199 412 -258 706 -270 172 -7 198 -16 233 -83 37 -68 16
-142 -54 -194 -28 -21 -38 -21 -580 -24 -304 -2 -567 0 -586 3 -25 5 -56 29
-125 99 -72 73 -107 100 -166 129 -98 48 -176 67 -275 67 -174 0 -305 -57
-433 -186 -45 -46 -96 -91 -112 -99 -24 -12 -77 -15 -289 -15 -156 0 -281 5
-313 11 -214 46 -358 228 -358 452 0 98 16 167 68 307 69 183 86 277 87 495
l1 190 135 135 c145 145 227 255 302 406 287 574 170 1229 -303 1693 -163 160
-384 301 -605 387 l-125 49 0 35 c0 19 7 103 15 185 8 83 15 156 15 163 0 9
183 12 881 12 834 0 880 -1 875 -17z m-1641 -765 c351 -176 601 -463 700 -803
110 -381 6 -777 -292 -1104 l-50 -55 -50 105 c-27 57 -79 151 -115 209 -79
128 -104 177 -152 298 -125 319 -196 759 -196 1224 l0 197 38 -16 c20 -8 73
-33 117 -55z"/>
<path d="M86 4348 c-3 -18 -8 -87 -11 -154 l-6 -121 147 -7 c80 -4 148 -5 151
-3 5 6 21 280 17 289 -2 3 -52 9 -111 12 -60 4 -125 9 -145 11 -35 5 -37 4
-42 -27z"/>
<path d="M156 3763 l-89 -4 7 -152 c4 -83 8 -152 9 -153 4 -2 292 18 295 21 2
2 0 69 -4 149 l-7 146 -61 -2 c-34 -1 -101 -4 -150 -5z"/>
<path d="M240 3160 c-69 -10 -126 -19 -126 -19 -1 -1 19 -129 36 -222 6 -36
15 -71 19 -78 6 -9 39 -5 147 19 76 18 140 33 142 35 2 2 -26 171 -44 263 -5
26 -5 26 -174 2z"/>
<path d="M403 2561 c-73 -26 -134 -49 -137 -52 -12 -11 123 -319 139 -319 7 0
238 130 248 139 4 4 -12 50 -36 102 -25 52 -50 111 -56 131 -7 21 -16 39 -19
42 -4 2 -66 -17 -139 -43z"/>
<path d="M710 1959 c-69 -32 -128 -60 -132 -61 -4 -2 6 -37 22 -78 16 -41 37
-101 45 -132 9 -33 22 -58 30 -58 26 0 260 53 269 61 5 4 2 37 -8 76 -19 73
-87 253 -96 252 -3 0 -61 -27 -130 -60z"/>
</g>
</svg>
