<?xml version="1.0" standalone="no"?>
<!DOCTYPE svg PUBLIC "-//W3C//DTD SVG 20010904//EN"
 "http://www.w3.org/TR/2001/REC-SVG-20010904/DTD/svg10.dtd">
<svg version="1.0" xmlns="http://www.w3.org/2000/svg"
 width="100.000000pt" height="100.000000pt" viewBox="0 0 100.000000 100.000000"
 preserveAspectRatio="xMidYMid meet">

<g transform="translate(0.000000,100.000000) scale(0.100000,-0.100000)"
fill="#000000" stroke="none">
<path d="M207 953 c-3 -5 -10 -44 -17 -88 -6 -44 -19 -109 -28 -145 -23 -89
-22 -314 2 -434 15 -76 16 -97 5 -151 -19 -95 -18 -95 110 -95 133 0 128 -4
141 143 5 56 19 134 30 172 13 42 24 116 28 185 6 93 10 115 22 115 12 0 16
-22 22 -115 4 -69 15 -143 28 -185 11 -38 25 -116 30 -172 13 -147 8 -143 141
-143 128 0 129 0 110 95 -11 53 -10 75 6 156 24 124 24 327 1 429 -9 41 -23
111 -30 155 l-13 80 -292 3 c-160 1 -294 -1 -296 -5z m167 -413 c12 -37 19
-85 19 -145 1 -106 -13 -265 -23 -265 -9 0 -45 41 -59 68 l-12 23 -43 -35 -43
-35 8 42 c4 23 11 98 15 167 7 153 17 193 51 220 43 34 65 23 87 -40z m338 40
c33 -25 46 -79 53 -225 3 -66 10 -139 14 -162 l8 -42 -41 35 c-37 32 -42 34
-51 18 -18 -31 -57 -74 -66 -74 -5 0 -9 22 -9 50 0 27 -5 81 -12 120 -9 54 -9
88 -1 149 21 143 48 176 105 131z"/>
</g>
</svg>
