<?xml version="1.0"?>
<svg xmlns="http://www.w3.org/2000/svg" version="1" viewBox="0 0 24 24" enable-background="new 0 0 24 24">
    <path d="M 9.6875 2 C 9.0875 2.1 8.3875 2.5 7.6875 3 C 5.5875 3.2 2.8125 4.60625 2.8125 7.90625 C 2.8125 8.70625 2.80625 9.10625 2.90625 9.40625 C 2.50625 9.90625 2 10.90625 2 12.90625 C 2 13.40625 2.2875 13.8875 2.6875 14.1875 L 5.09375 15.5 C 5.29375 15.6 5.60625 15.6875 5.90625 15.6875 C 6.00625 15.6875 6.3125 15.1875 6.3125 15.1875 L 6.3125 16 C 6.3125 16.3 6.1875 16.4875 6.1875 16.6875 C 6.0875 17.0875 6.09375 17.4 6.09375 18 C 6.09375 19.6 7.8125 20.99375 8.8125 21.59375 C 9.1125 21.89375 9.3875 22 9.6875 22 L 14.3125 22 C 14.6125 22 14.8875 21.8875 15.1875 21.6875 C 16.1875 20.9875 17.8125 19.59375 17.8125 18.09375 C 17.8125 17.49375 17.7875 17.2125 17.6875 16.8125 C 17.6875 16.6125 17.59375 16.39375 17.59375 16.09375 L 17.59375 15.3125 C 17.59375 15.3125 17.9 15.8125 18 15.8125 C 18.3 15.8125 18.5125 15.69375 18.8125 15.59375 L 21.1875 14.3125 C 21.6875 14.0125 21.90625 13.5 21.90625 13 C 22.00625 10.9 21.49375 9.90625 21.09375 9.40625 C 21.09375 9.10625 21.1875 8.70625 21.1875 7.90625 C 21.1875 4.60625 18.4125 3.2 16.3125 3 C 15.6125 2.5 14.9125 2.19375 14.3125 2.09375 L 14 2.09375 L 10 2.09375 C 9.9 1.99375 9.7875 2 9.6875 2 z M 9.90625 3.59375 L 13.90625 3.59375 C 14.30625 3.69375 14.8125 3.9125 15.3125 4.3125 L 15.59375 4.5 L 16 4.5 C 16.4 4.5 19.5 4.90625 19.5 7.90625 C 19.5 8.50625 19.50625 8.8875 19.40625 9.1875 L 19.3125 9.6875 L 19.59375 10.09375 C 19.79375 10.39375 20.1875 11.10625 20.1875 12.90625 L 18.59375 14 C 17.49375 13.9 17.2 12.39375 17 12.09375 L 17 9.8125 C 16.5 9.6125 14.8125 8.2125 15.3125 5.3125 C 14.0125 5.7125 12 8.5125 12 9.3125 C 12 13.6125 14.1 17.8125 14.5 17.8125 C 14.8 17.8125 15.20625 17.4125 15.90625 16.3125 C 16.011955 16.136326 16.09019 15.955591 16.1875 15.78125 L 16.1875 16.3125 C 16.1875 16.6125 16.3125 16.8 16.3125 17 C 16.3125 17.4 16.40625 17.59375 16.40625 18.09375 C 16.40625 18.69375 15.60625 19.7 14.40625 20.5 L 9.8125 20.5 C 8.6125 19.7 7.8125 18.69375 7.8125 18.09375 C 7.8125 17.59375 7.80625 17.4 7.90625 17 C 7.90625 16.8 8 16.6125 8 16.3125 L 8 16.125 C 8.0359988 16.18584 8.0569044 16.251091 8.09375 16.3125 C 8.79375 17.4125 9.2 17.8125 9.5 17.8125 C 9.9 17.8125 12 13.6125 12 9.3125 C 12 8.5125 9.9875 5.7125 8.6875 5.3125 C 9.1875 8.2125 7.5 9.6125 7 9.8125 L 7 12.21875 C 6.3953321 13.164125 5.5 14 5.5 14 L 3.59375 13 C 3.59375 11.3 4.0875 10.5125 4.1875 10.3125 L 4.5 9.90625 L 4.40625 9.1875 C 4.40625 8.8875 4.3125 8.40625 4.3125 7.90625 C 4.3125 4.90625 7.5125 4.5 7.8125 4.5 L 8.1875 4.5 L 8.5 4.3125 C 9 3.9125 9.50625 3.69375 9.90625 3.59375 z"/>
</svg>
