<?xml version="1.0" standalone="no"?>
<!DOCTYPE svg PUBLIC "-//W3C//DTD SVG 20010904//EN"
 "http://www.w3.org/TR/2001/REC-SVG-20010904/DTD/svg10.dtd">
<svg version="1.0" xmlns="http://www.w3.org/2000/svg"
 width="100.000000pt" height="100.000000pt" viewBox="0 0 100.000000 100.000000"
 preserveAspectRatio="xMidYMid meet">

<g transform="translate(0.000000,100.000000) scale(0.100000,-0.100000)"
fill="#000000" stroke="none">
<path d="M207 953 c-4 -3 -7 -19 -7 -34 0 -15 -12 -76 -27 -136 -23 -93 -27
-129 -27 -258 0 -105 5 -177 18 -239 15 -76 16 -97 5 -151 -18 -94 -17 -95
100 -95 120 0 120 1 128 124 3 50 18 125 40 196 21 69 37 148 40 198 5 68 9
82 23 82 14 0 18 -14 23 -82 3 -50 19 -129 40 -198 22 -71 37 -146 40 -196 8
-123 8 -124 128 -124 117 0 118 1 100 95 -11 54 -10 75 5 151 13 62 18 134 18
239 0 128 -4 166 -27 260 -14 61 -28 124 -29 140 l-3 30 -291 3 c-160 1 -293
-1 -297 -5z m134 -393 c17 -80 33 -177 36 -217 5 -67 4 -73 -20 -97 -53 -53
-119 -21 -152 72 -9 26 -19 85 -22 132 -8 123 18 207 91 288 l21 24 7 -29 c4
-15 22 -93 39 -173z m419 135 c62 -90 77 -255 35 -377 -32 -92 -99 -125 -150
-73 -37 36 -32 116 23 355 11 47 23 102 26 123 6 33 9 37 22 26 9 -7 28 -31
44 -54z"/>
</g>
</svg>
