<?xml version="1.0" standalone="no"?>
<!DOCTYPE svg PUBLIC "-//W3C//DTD SVG 20010904//EN"
 "http://www.w3.org/TR/2001/REC-SVG-20010904/DTD/svg10.dtd">
<svg version="1.0" xmlns="http://www.w3.org/2000/svg"
 width="512.000000pt" height="512.000000pt" viewBox="0 0 512.000000 512.000000"
 preserveAspectRatio="xMidYMid meet">

<g transform="translate(0.000000,512.000000) scale(0.100000,-0.100000)"
fill="#000000" stroke="none">
<path d="M3857 5105 c-362 -69 -611 -358 -693 -806 -23 -126 -24 -416 -1 -549
33 -194 97 -369 181 -499 l46 -72 0 -185 c0 -492 56 -938 155 -1231 25 -73 45
-134 45 -136 0 -3 -28 -10 -62 -16 -315 -61 -615 -166 -958 -335 -206 -102
-311 -141 -481 -177 -88 -19 -135 -23 -304 -23 -202 0 -305 11 -432 49 l-51
15 -52 158 c-29 86 -57 162 -64 169 -6 7 -134 49 -284 95 -209 63 -277 80
-290 72 -9 -6 -50 -63 -90 -127 l-74 -117 -208 0 c-176 0 -211 -2 -224 -16
-13 -13 -16 -43 -16 -174 l0 -158 67 -82 67 -82 32 -281 c18 -155 33 -292 34
-304 0 -13 8 -31 19 -42 17 -17 49 -19 492 -25 l474 -7 185 -34 c773 -141
1577 -214 1897 -171 320 42 668 176 1038 397 167 99 382 250 449 313 40 38 44
46 55 121 7 44 30 171 51 282 80 416 120 756 125 1068 l3 200 46 75 c67 108
90 191 82 294 -12 148 -112 596 -219 982 -31 112 -32 126 -25 205 18 183 -10
433 -68 609 -50 149 -103 239 -204 341 -97 98 -196 154 -335 190 -107 27 -301
34 -408 14z m383 -110 c221 -54 390 -221 469 -465 43 -134 52 -201 58 -417 l5
-213 -26 -55 c-20 -39 -79 -108 -211 -245 -259 -269 -349 -394 -426 -590 -48
-122 -66 -211 -80 -385 -28 -347 19 -769 111 -1001 81 -204 189 -301 326 -292
78 5 118 34 161 115 43 81 66 157 114 388 22 110 52 236 66 280 25 80 68 175
79 175 16 0 -22 -506 -56 -745 -17 -116 -115 -675 -125 -711 -2 -6 -100 -22
-226 -38 -302 -37 -421 -64 -495 -113 l-24 -15 31 -39 30 -39 40 20 c21 11 66
27 99 36 59 15 402 65 408 59 5 -5 -277 -189 -382 -249 -386 -222 -737 -339
-1061 -353 -364 -15 -1070 59 -1770 187 -156 28 -172 29 -608 36 -444 7 -447
7 -452 28 -2 12 -18 142 -35 290 -17 147 -33 273 -37 280 -4 6 -33 43 -65 82
l-58 71 0 106 0 107 375 0 375 0 0 50 0 50 -141 0 -140 0 28 50 c58 103 28
101 286 23 l226 -67 57 -163 c31 -89 62 -167 69 -173 23 -19 237 -68 354 -80
146 -16 382 -7 516 20 160 32 284 76 478 172 359 177 605 264 957 339 169 36
353 30 473 -17 17 -6 53 74 40 87 -19 18 -165 50 -256 56 l-99 6 -24 54 c-107
243 -183 761 -184 1251 l0 113 71 -63 c38 -35 74 -63 78 -63 4 0 20 15 35 32
l27 33 -108 107 c-185 183 -265 336 -324 613 -18 86 -23 139 -23 290 -2 300
51 501 180 697 107 161 250 258 444 299 81 17 279 11 370 -11z m645 -1605 c88
-351 127 -548 129 -650 1 -79 -2 -91 -36 -163 -26 -53 -59 -100 -107 -151
-112 -119 -154 -219 -221 -539 -66 -313 -86 -374 -138 -429 -65 -69 -177 -7
-251 139 -109 218 -163 642 -131 1036 14 171 48 297 115 432 74 148 141 235
362 466 l188 196 13 -41 c7 -22 42 -156 77 -296z"/>
</g>
</svg>
