<?xml version="1.0" standalone="no"?>
<!DOCTYPE svg PUBLIC "-//W3C//DTD SVG 20010904//EN"
 "http://www.w3.org/TR/2001/REC-SVG-20010904/DTD/svg10.dtd">
<svg version="1.0" xmlns="http://www.w3.org/2000/svg"
 width="100.000000pt" height="100.000000pt" viewBox="0 0 100.000000 100.000000"
 preserveAspectRatio="xMidYMid meet">

<g transform="translate(0.000000,100.000000) scale(0.100000,-0.100000)"
fill="#000000" stroke="none">
<path d="M135 904 c-48 -25 -104 -85 -121 -131 -14 -35 -16 -63 -10 -144 17
-259 89 -435 212 -520 45 -31 49 -32 94 -20 36 9 62 9 115 0 178 -31 309 35
386 195 23 48 37 64 78 88 30 16 63 46 78 70 24 36 28 52 28 112 -1 147 -95
237 -231 223 -100 -10 -171 -69 -196 -162 -10 -39 -13 -40 -45 -37 -59 7 -123
-18 -170 -66 -24 -24 -43 -39 -43 -34 0 6 -27 40 -61 77 -55 61 -97 130 -86
141 2 3 16 -1 30 -7 35 -16 79 2 117 50 49 58 39 88 -49 150 -49 34 -81 38
-126 15z m655 -569 c-19 -49 -42 -87 -77 -126 -70 -77 -154 -101 -282 -79
l-73 12 22 23 c35 37 83 55 147 55 87 0 121 14 183 74 30 29 62 56 70 59 8 3
16 6 17 6 1 1 -2 -10 -7 -24z"/>
</g>
</svg>
